<?xml version="1.0" encoding="UTF-8"?>
<svg xmlns="http://www.w3.org/2000/svg" width="626" height="626" viewBox="0 0 626 626">
  <path d="m310.188 132.75 2.301-.004c12.081.005 23.66.773 35.511 3.254l3.352.621c43.03 8.77 84.435 35.155 109.234 71.645C475.08 230.424 485.936 253.918 491 280l.688 3.5c1.496 9.48 1.52 18.99 1.562 28.563l.016 2.043c.269 44.61-16.73 85.227-45.266 118.894l-1.836 2.21c-4.028 4.76-8.404 8.78-13.164 12.79l-2.836 2.531C413.351 465.423 392.491 477.428 371 484l-3.34 1.043c-6.598 1.973-13.259 3.622-19.973 5.144l-2.208.507c-9.92 2.183-19.68 2.492-29.805 2.491-2.208.002-4.414.02-6.621.04-14.392.06-28.076-1.528-41.99-5.413l-3.391-.936C241.992 480.724 221.862 470.76 204 457l-2.766-2.09c-5.871-4.548-11.077-9.577-16.234-14.91l-2.5-2.437L180 435l-1.879-1.926C153.087 406.428 138.774 371.944 134 336l-.574-3.785c-5.435-45.184 7.621-92.768 35.637-128.59A326 326 0 0 1 173 199l2.004-2.336A313 313 0 0 1 182 189l1.507-1.61c32.824-34.781 78.9-54.59 126.68-54.64" fill="#8921f7"/>
  <path d="M390 223c7.876 6.75 7.876 6.75 11.296 10.163l2.35 2.336 2.502 2.504 2.693 2.682q3.625 3.614 7.244 7.233l4.528 4.522q7.9 7.887 15.794 15.782 7.361 7.36 14.733 14.707 6.336 6.317 12.663 12.645 3.775 3.776 7.558 7.545c2.805 2.793 5.6 5.594 8.397 8.396l2.545 2.528c.755.76 1.51 1.52 2.29 2.302l2.005 2.004C488 320 488 320 488 322h2v2h2v-20h1c.213 13.17.369 26.002-2 39l-.625 3.68C484.398 379.35 469.333 407.832 448 433l-1.836 2.21c-4.028 4.76-8.404 8.78-13.164 12.79l-2.836 2.531C413.351 465.423 392.491 477.428 371 484l-3.34 1.043c-6.598 1.973-13.259 3.622-19.973 5.144l-2.208.507c-9.713 2.137-19.108 2.44-29.041 2.368l-3.635-.013Q308.4 493.03 304 493v-1l21-1-6-4a76 76 0 0 1-3.72-3.467l-2.04-2.022-2.173-2.185-2.338-2.327a3502 3502 0 0 1-7.596-7.6l-5.288-5.283q-6.236-6.232-12.462-12.476a6641 6641 0 0 0-11.38-11.372q-6.163-6.15-12.314-12.312a4327 4327 0 0 0-5.242-5.236q-3.651-3.646-7.29-7.304l-2.21-2.198-1.988-2.005-1.742-1.744C240 408 240 408 240 406l-3-2h39v-73h73v73h41z" fill="#6b12e6"/>
  <path d="M236 222h40v72h73v-72h41v182h-41v-73h-73v73h-40z" fill="#fcfafe"/>
  <path d="m277 222 1 2 3 1c1.21 1.443 1.21 1.443 2.484 3.344 3.892 5.384 8.542 9.982 13.246 14.647 1.51 1.5 3.01 3.01 4.508 4.52 5.315 5.32 10.738 10.264 16.792 14.753 2.057 1.813 2.847 3.275 3.97 5.736a249 249 0 0 0 4 3v2h2v2h2c1.252 1.477 2.502 2.958 3.684 4.492 1.434 1.776 1.434 1.776 4.316 3.508v2l3 1v2h3l.813 1.875c1.143 2.425 1.143 2.425 4.187 4.125h-72z" fill="#6a12e6"/>
  <path d="M492 304h1c.242 14.993.035 29.26-3 44h-1c-.079-3.777 0-7.325.563-11.062.408-3.68.106-6.343-.563-9.938l1-3h2z" fill="#6d24d8"/>
  <path d="m237 149 2 1c-3.625 3-3.625 3-7 3v2c-3.687 2.458-6.697 3.012-11 4 3.04-3.37 6.069-5.304 10.125-7.312l3.195-1.614z" fill="#8634e5"/>
  <path d="M452 199c3.26 3.17 6.222 6.4 9 10l-1 2-1.812-2.375c-2.099-2.77-2.099-2.77-5.188-4.625-.687-2.625-.687-2.625-1-5" fill="#8935e3"/>
  <path d="M458 419c.715 1.766.715 1.766 1 4-1.434 1.922-1.434 1.922-3.437 3.75l-1.997 1.86L452 430c0-3.606.817-4.413 3-7.187l1.688-2.168z" fill="#efd9fc"/>
  <path d="m156 224 1 2c-2.344 6.563-2.344 6.563-6 9 1.225-4.053 2.699-7.444 5-11" fill="#8733e6"/>
  <path d="M198 451c3.356.6 5.378 1.846 8 4l-1 3a858 858 0 0 1-3.5-2.937l-1.969-1.653L198 452z" fill="#8930e9"/>
  <path d="M146 243c1.087 4.348.942 6.116-1 10h-2z" fill="#9448eb"/>
</svg>

